<?xml version="1.0" standalone="no"?>
<!DOCTYPE svg PUBLIC "-//W3C//DTD SVG 20010904//EN"
 "http://www.w3.org/TR/2001/REC-SVG-20010904/DTD/svg10.dtd">
<svg version="1.0" xmlns="http://www.w3.org/2000/svg"
 width="860.000000pt" height="900.000000pt" viewBox="0 0 860.000000 900.000000"
 preserveAspectRatio="xMidYMid meet">
<metadata>
Created by potrace 1.16, written by Peter Selinger 2001-2019
</metadata>
<g transform="translate(0.000000,900.000000) scale(0.100000,-0.100000)"
fill="#000000" stroke="none">
<path d="M0 8705 l0 -295 24 -16 c14 -8 33 -36 42 -60 9 -24 21 -44 26 -44 5
0 14 -13 19 -30 6 -16 17 -30 25 -30 19 0 18 -19 -3 -27 -19 -7 -53 29 -53 58
0 10 -6 19 -14 19 -8 0 -21 18 -29 39 -9 22 -21 42 -27 46 -7 4 -10 -1279 -10
-4179 l0 -4186 4119 0 c3915 0 4120 1 4124 17 4 17 5 17 6 1 1 -16 16 -18 176
-18 l175 0 0 1791 0 1791 -35 58 c-19 32 -35 61 -35 64 0 4 -22 42 -49 84 -27
42 -53 90 -57 106 l-7 28 29 -18 c43 -29 85 -80 121 -148 l32 -61 1 2653 0
2652 -869 0 -868 0 45 -87 c25 -49 50 -95 57 -103 15 -18 167 -364 219 -500
82 -213 147 -461 145 -552 -1 -42 -3 -48 -9 -28 -5 14 -8 18 -9 9 -1 -21 -27
-43 -35 -30 -4 5 -2 12 4 16 25 16 -6 219 -45 294 -30 58 -31 46 -3 -40 23
-71 21 -92 -10 -108 -18 -10 -24 -3 -61 69 -46 90 -96 234 -86 250 9 15 52 12
69 -6 22 -21 20 -56 -5 -88 -16 -20 -17 -25 -4 -20 9 4 22 19 30 35 17 32 7
72 -22 88 -18 9 -60 71 -48 71 3 0 -3 10 -15 22 -11 12 -20 26 -20 32 0 5 -3
7 -6 4 -3 -3 7 -29 21 -58 14 -29 24 -54 22 -57 -3 -2 -16 -6 -29 -7 -19 -2
-28 5 -43 36 -10 21 -20 36 -22 35 -5 -5 19 -57 41 -89 10 -15 18 -43 19 -63
1 -19 5 -35 9 -35 4 0 8 -12 8 -26 0 -14 7 -40 15 -57 8 -18 21 -77 29 -132
13 -90 34 -170 35 -137 1 6 7 12 15 12 8 0 14 -8 13 -19 -1 -12 -6 -17 -15
-13 -10 3 -13 0 -9 -14 3 -10 15 -55 27 -99 40 -146 182 -447 258 -548 21 -27
52 -72 70 -100 38 -61 88 -114 98 -104 4 4 -12 34 -35 66 -23 33 -55 88 -71
123 -29 62 -72 226 -85 323 l-7 50 42 -60 c22 -33 52 -81 66 -107 13 -27 26
-48 29 -48 6 0 -20 58 -53 119 -16 28 -20 47 -14 53 7 7 22 -9 46 -46 20 -31
36 -59 36 -62 0 -5 44 -67 63 -89 4 -5 3 3 -2 18 -6 16 -11 33 -11 40 0 23 19
-10 55 -98 20 -49 41 -94 45 -100 4 -5 24 -55 43 -110 20 -55 49 -137 66 -183
34 -90 39 -116 17 -86 -9 11 -5 -8 9 -46 25 -71 20 -102 -15 -95 -11 2 -20 -2
-20 -8 -1 -7 -12 2 -26 18 -17 20 -22 23 -15 8 14 -28 14 -40 0 -26 -7 7 -13
30 -14 53 -3 43 -33 89 -46 69 -6 -10 -33 50 -34 76 0 6 -7 17 -15 25 -8 9
-23 27 -33 40 -10 14 -15 19 -12 13 7 -15 0 -16 -43 -4 -23 7 -30 6 -26 -1 5
-7 -4 -9 -27 -5 -19 3 -55 9 -81 13 l-48 6 0 -40 c0 -44 -58 -246 -92 -321
-26 -59 -83 -154 -126 -210 -57 -75 -105 -135 -133 -166 -17 -19 -31 -49 -37
-80 l-10 -50 -1 52 c-1 45 3 56 36 95 98 117 233 359 282 506 17 51 31 99 31
105 0 11 -25 29 -150 110 -150 97 -414 311 -428 346 -3 9 -28 38 -54 64 -26
26 -48 53 -48 59 0 6 -12 27 -27 46 -15 20 -27 43 -28 53 -1 10 -12 27 -26 38
-13 11 -19 20 -14 21 20 0 63 -36 102 -85 42 -53 85 -94 68 -65 -5 8 -28 38
-52 66 -44 52 -57 78 -26 53 14 -12 16 -12 11 1 -2 8 -47 53 -100 100 -52 47
-94 86 -93 88 1 1 24 -7 51 -18 l49 -21 -63 56 c-34 31 -60 61 -57 66 3 5 1
18 -5 29 -9 16 -8 25 1 36 11 14 4 15 -62 9 -73 -7 -129 -24 -81 -25 51 0 9
-30 -45 -30 -12 0 -23 -6 -26 -12 -3 -10 -7 -10 -20 0 -14 12 -19 11 -33 -2
-12 -12 -20 -14 -29 -6 -10 8 -14 2 -19 -25 -4 -20 -15 -39 -24 -42 -9 -4 -19
-9 -22 -13 -7 -9 -127 -82 -193 -118 -46 -25 -62 -30 -77 -22 -17 9 -100 136
-100 153 0 3 -22 44 -48 89 -91 155 -120 213 -182 358 -34 79 -70 156 -79 170
-10 14 -55 92 -102 173 -46 82 -98 165 -115 185 -32 37 -32 36 11 -51 50 -102
75 -196 78 -287 l2 -63 -61 -13 c-62 -12 -137 -45 -149 -64 -9 -15 -36 -12
-57 7 -10 9 -18 11 -18 5 0 -6 4 -13 9 -17 9 -5 41 -62 41 -72 0 -2 -4 -1 -10
2 -6 4 -10 -6 -10 -21 l0 -28 -20 22 c-23 24 -79 158 -85 200 -2 15 -21 64
-43 110 -22 45 -43 100 -47 122 -4 22 -10 40 -15 40 -4 0 -6 -8 -4 -17 2 -10
17 -79 34 -153 35 -160 76 -289 126 -402 20 -46 54 -135 76 -198 22 -63 51
-134 63 -157 13 -23 29 -60 36 -83 7 -23 33 -64 57 -91 47 -53 47 -66 -1 -21
-25 22 -29 23 -22 7 4 -11 9 -54 11 -95 l4 -75 -37 -36 c-60 -56 -115 -97
-148 -108 -29 -11 -29 -10 10 24 43 37 41 47 -3 16 -81 -57 -183 -83 -190 -49
-6 30 50 87 135 139 45 28 86 55 90 61 11 19 -107 -51 -156 -91 -24 -20 -74
-56 -110 -81 -116 -79 -259 -196 -250 -204 12 -11 107 48 128 79 13 19 30 35
37 35 8 0 14 5 14 10 0 6 5 10 12 10 7 0 -7 -19 -30 -43 -39 -40 -55 -66 -32
-52 14 9 12 -1 -3 -17 -7 -7 -32 -49 -56 -93 -24 -44 -59 -102 -79 -130 -19
-27 -29 -45 -21 -39 159 123 230 166 134 82 -33 -29 -113 -107 -178 -173 -65
-66 -116 -113 -112 -105 8 18 -61 -57 -112 -123 -21 -27 -76 -90 -122 -140
-45 -51 -100 -117 -121 -148 -21 -30 -85 -96 -142 -145 -56 -49 -135 -122
-174 -161 -40 -40 -75 -73 -78 -73 -19 0 34 61 217 248 111 114 217 227 236
251 l34 43 -54 -27 c-30 -15 -85 -46 -124 -68 -38 -23 -99 -55 -135 -73 -36
-18 -101 -55 -145 -81 l-80 -49 0 -285 c1 -180 5 -306 13 -343 7 -33 9 -62 6
-65 -10 -10 -23 23 -36 94 -14 77 -18 516 -6 624 7 57 6 63 -10 58 -9 -2 -56
-16 -104 -30 -122 -36 -231 -58 -316 -63 -40 -2 -77 -6 -82 -9 -5 -3 -59 4
-121 15 -62 11 -132 20 -156 20 -25 0 -65 9 -91 19 -26 10 -67 26 -92 35 -42
16 -135 86 -114 86 6 0 14 -4 20 -9 21 -22 173 -74 250 -86 163 -27 335 -29
499 -6 83 11 174 28 202 37 47 14 52 18 43 35 -13 23 2 26 20 4 19 -23 29 -18
38 18 6 20 14 31 24 29 10 -1 17 8 21 30 3 18 9 47 12 64 9 39 -17 54 -46 28
-18 -16 -19 -16 -19 9 0 42 17 77 35 71 11 -5 17 2 21 24 3 17 21 45 40 63 30
29 34 31 41 14 4 -11 18 -29 32 -41 23 -20 24 -23 9 -29 -11 -4 -31 3 -55 21
l-38 28 44 -46 c45 -48 47 -73 5 -65 -18 3 -25 -2 -35 -24 -6 -16 -9 -38 -6
-49 3 -12 1 -18 -5 -14 -7 5 -9 -2 -6 -20 3 -15 1 -26 -6 -26 -6 -1 6 -10 27
-21 36 -19 40 -19 63 -5 13 9 26 26 29 39 13 51 103 83 119 42 3 -9 0 -12 -10
-8 -16 6 -20 -12 -4 -22 14 -9 103 32 95 44 -7 13 141 163 184 185 18 10 31
20 28 23 -10 9 -47 -18 -123 -87 -77 -69 -112 -84 -122 -48 -8 31 -25 20 -19
-12 4 -16 2 -32 -3 -35 -6 -3 -10 2 -10 12 -1 17 -1 17 -15 -1 -12 -16 -15
-17 -20 -4 -9 22 -40 11 -54 -18 -6 -13 -17 -24 -25 -24 -9 0 -20 -9 -26 -20
-6 -11 -15 -18 -21 -15 -20 13 -7 47 31 84 22 21 40 42 40 45 0 4 -11 11 -24
16 -18 6 -23 14 -19 29 3 13 -5 33 -26 58 l-31 37 23 24 c12 13 31 28 41 34
18 10 18 7 14 -37 -4 -35 -3 -44 6 -35 7 7 10 50 8 128 -4 131 -12 165 -12 51
l0 -74 -48 -31 -49 -32 -42 47 c-42 45 -39 34 7 -28 l23 -31 -26 -10 c-14 -5
-30 -20 -35 -32 -5 -13 -21 -34 -35 -47 -22 -20 -28 -22 -36 -10 -7 11 -10 10
-15 -8 -4 -13 -11 -20 -16 -17 -6 4 -14 0 -19 -7 -4 -7 -11 -10 -15 -6 -4 4 5
19 20 33 36 36 27 41 -19 10 -58 -40 -77 -10 -30 46 14 16 25 37 25 46 0 13 4
12 20 -6 11 -12 27 -19 35 -16 9 4 19 -4 27 -22 l13 -28 8 40 c4 21 11 67 14
102 4 48 10 66 27 80 16 12 25 33 29 67 4 28 20 77 37 110 16 33 23 51 14 40
-9 -11 -32 -54 -50 -95 -19 -41 -45 -97 -59 -125 -13 -27 -26 -62 -29 -76 -5
-21 -11 -25 -40 -25 l-34 1 19 27 c14 19 16 29 8 34 -29 18 20 268 64 322 5 7
7 15 4 18 -9 9 -85 -163 -115 -258 -15 -48 -31 -86 -37 -85 -15 4 -65 110 -60
125 3 6 8 20 12 30 6 15 5 15 -10 3 -14 -11 -18 -11 -22 0 -39 108 -44 139
-22 139 7 0 21 16 30 36 15 30 20 34 32 24 16 -14 21 -35 5 -25 -5 3 0 -17 12
-45 17 -41 18 -52 8 -65 -11 -13 -15 -13 -23 -3 -6 9 -7 8 -3 -5 3 -10 6 -24
6 -30 0 -7 7 -3 15 7 18 23 20 21 33 -24 8 -29 10 -31 11 -10 0 14 -10 57 -23
95 -14 39 -24 71 -23 71 1 1 12 -2 25 -7 13 -5 29 -23 37 -41 13 -32 13 -31
17 48 3 79 2 81 -17 70 -11 -6 -23 -15 -27 -21 -4 -6 -19 2 -36 18 -15 15 -33
27 -39 27 -6 0 -20 11 -31 25 -11 13 -21 22 -24 20 -3 -3 -15 6 -28 20 -13 14
-27 25 -30 25 -11 0 26 -188 55 -283 14 -45 25 -93 25 -106 0 -36 -23 -19 -42
30 -21 55 -24 37 -3 -21 8 -24 14 -45 12 -46 -2 -2 -19 10 -38 26 -19 16 -37
29 -41 30 -12 0 -10 -38 2 -45 5 -3 17 -22 26 -41 13 -26 14 -38 5 -47 -8 -8
-11 -7 -11 6 0 9 -5 17 -11 17 -6 0 -8 -9 -4 -20 4 -11 2 -20 -4 -20 -6 0 -11
-8 -11 -17 -1 -10 -10 0 -21 22 l-20 40 26 80 c15 44 28 85 31 92 3 6 -3 13
-12 15 -19 3 -27 55 -12 75 5 7 5 14 -2 18 -5 3 -10 19 -10 36 0 16 -6 38 -12
49 -10 16 -8 28 15 75 15 30 23 55 18 55 -16 0 -20 129 -11 370 5 135 16 290
25 345 22 144 80 370 132 515 46 128 225 499 269 557 13 17 24 35 24 38 0 4
22 35 48 69 27 33 52 67 56 74 6 9 -188 12 -955 12 l-962 0 6 -77 c8 -123 74
-366 147 -540 26 -65 33 -89 20 -73 -28 36 -77 156 -121 295 l-38 120 -2 -75
c-1 -100 -16 -56 -19 60 -2 56 -5 75 -9 55 -12 -54 -21 -1 -21 121 l0 114
-880 0 -880 0 0 -295z m2521 -463 c79 -129 169 -327 195 -429 40 -158 76 -483
54 -483 -5 0 -10 10 -10 23 0 13 -9 66 -21 118 -12 52 -25 114 -29 139 -5 25
-16 62 -24 83 -9 20 -18 56 -20 80 -8 81 -58 233 -117 352 -32 66 -59 125 -59
131 0 5 -13 31 -30 57 -16 26 -30 51 -30 55 1 12 39 -40 91 -126z m-2236 -44
c84 -57 169 -228 188 -380 22 -171 -38 -276 -117 -203 -30 28 -32 45 -9 114
15 49 42 75 29 29 -15 -50 -18 -86 -8 -92 6 -3 15 21 23 59 9 44 17 65 27 65
22 0 10 68 -33 192 -43 122 -87 189 -144 214 -23 10 -41 22 -41 27 0 13 50 -1
85 -25z m2045 -633 c-21 -192 -29 -755 -14 -980 32 -464 98 -613 423 -949 115
-119 112 -119 -28 -7 -129 104 -265 280 -311 404 -12 32 -24 57 -26 54 -2 -2
9 -70 26 -152 33 -162 34 -174 21 -159 -17 18 -71 271 -95 449 -14 99 -33 227
-41 285 -9 62 -17 193 -19 321 -1 119 -6 221 -10 227 -3 6 -2 13 4 17 5 3 10
43 10 88 0 107 27 455 40 515 27 121 38 55 20 -113z m5779 -910 c-12 -283 -80
-598 -141 -651 -21 -19 -21 -19 -13 1 31 78 57 188 71 290 8 66 21 155 29 199
24 129 45 314 47 416 l1 95 7 -85 c4 -47 3 -166 -1 -265z m-2405 122 c33 -32
34 -34 18 -52 -13 -14 -9 -13 18 4 31 20 30 18 -10 -19 -25 -22 -96 -66 -157
-97 -99 -49 -118 -55 -158 -51 -25 3 -46 1 -47 -4 -6 -16 -164 -16 -161 -1 2
7 -4 10 -12 7 -12 -5 -15 3 -15 37 1 24 7 55 15 69 l14 25 7 -33 7 -33 17 28
c23 37 56 66 105 92 72 38 92 18 50 -49 -15 -23 -24 -44 -21 -47 2 -3 30 14
60 37 65 49 193 119 218 120 9 0 32 -15 52 -33z m-5634 -20 c0 -21 131 -250
156 -274 13 -12 24 -29 24 -38 0 -8 5 -15 10 -15 6 0 10 4 10 8 0 4 13 12 29
18 21 9 36 8 60 -2 39 -17 42 -39 4 -29 -36 10 -74 8 -87 -5 -6 -6 -4 -23 8
-47 49 -102 49 -99 -5 -245 -27 -73 -56 -140 -64 -148 -24 -23 -19 -1 31 151
l47 139 -25 38 c-13 20 -65 120 -116 222 -87 176 -120 263 -94 246 7 -4 12
-13 12 -19z m1073 -29 c-47 -52 -153 -222 -216 -348 -39 -77 -93 -210 -127
-310 -64 -188 -68 -181 -13 25 51 196 105 319 212 490 39 61 134 165 152 165
8 0 5 -9 -8 -22z m5217 -88 c11 -22 20 -46 20 -55 0 -18 17 -20 23 -2 3 9 8 9
21 -3 10 -8 44 -15 76 -17 67 -4 111 -20 162 -61 l38 -30 -62 -30 c-33 -17
-65 -29 -69 -26 -5 3 -9 0 -10 -5 -3 -29 -1 -48 6 -64 11 -26 -2 -33 -25 -12
-19 17 -19 19 -4 37 14 15 15 18 3 18 -8 0 -20 -5 -26 -11 -7 -7 -19 1 -40 28
-66 85 -168 265 -156 277 10 9 22 -3 43 -44z m-1235 -29 c-4 -28 -11 -51 -16
-51 -5 0 -8 -10 -6 -22 2 -18 -13 -28 -95 -66 -62 -29 -103 -42 -114 -38 -16
6 -16 8 6 19 31 15 70 90 71 137 0 31 1 33 9 12 8 -20 13 -21 31 -12 11 7 28
25 37 41 19 33 32 33 47 1 14 -31 25 -27 25 10 0 17 3 29 6 25 3 -3 3 -29 -1
-56z m1191 -8 c21 -38 61 -104 91 -148 32 -48 48 -82 41 -84 -25 -8 -118 137
-118 184 0 22 -18 18 -25 -6 -5 -14 0 -28 13 -42 11 -12 25 -39 32 -61 9 -27
15 -34 21 -25 6 10 10 7 18 -12 5 -15 16 -29 25 -32 9 -4 13 -13 10 -22 -7
-18 22 -55 42 -55 7 0 20 -12 27 -26 8 -15 65 -63 128 -108 63 -45 115 -89
117 -99 2 -10 21 -44 43 -74 21 -31 36 -59 34 -63 -3 -5 -1 -20 5 -34 5 -14 8
-26 6 -26 -3 0 -30 37 -62 83 -85 122 -136 173 -268 267 l-120 85 -48 112
c-26 62 -50 125 -54 140 -6 27 -6 27 9 8 21 -26 22 -5 2 42 -14 34 -19 63 -11
63 2 0 21 -30 42 -67z m-5661 -43 c-1 -11 -11 -30 -24 -44 -20 -21 -20 -24 -6
-30 11 -4 15 -12 11 -22 -3 -9 -3 -21 1 -27 4 -7 12 4 18 27 16 57 40 62 32 6
-8 -63 -62 -114 -134 -129 -49 -9 -60 -9 -86 7 -34 19 -55 47 -44 58 4 4 13 2
19 -4 17 -17 28 -15 22 3 -4 8 -1 21 5 29 6 7 8 15 5 19 -3 3 3 3 15 0 15 -4
31 6 59 36 21 23 45 41 54 41 9 0 23 11 32 25 20 30 23 31 21 5z m4870 -111
c22 -6 52 -12 68 -13 42 -2 32 -22 -17 -35 -25 -6 -48 -16 -52 -22 -7 -11 13
-9 68 7 15 4 17 0 13 -23 -7 -36 -25 -193 -25 -213 0 -10 -3 -11 -8 -4 -4 7
-16 14 -27 16 -11 2 -19 10 -17 17 2 9 -3 11 -15 6 -20 -9 -65 -9 -102 0 -22
6 -23 7 -6 25 23 25 10 26 -21 1 -23 -18 -28 -18 -86 -5 -75 18 -127 21 -136
8 -4 -5 -18 -10 -32 -12 -53 -6 -142 -47 -151 -69 -8 -22 -29 -32 -29 -15 0 5
-7 9 -15 9 -8 0 -12 -4 -9 -8 2 -4 0 -10 -5 -13 -5 -3 -11 3 -14 14 -3 11 0
20 5 20 6 0 4 8 -5 18 -18 19 -37 92 -36 137 1 31 3 28 13 -17 4 -16 11 -28
17 -28 6 0 8 4 5 9 -4 5 -2 21 3 34 11 28 94 82 111 72 15 -9 50 4 50 19 0 16
56 33 175 56 106 20 224 24 280 9z m255 -61 c69 -28 65 -24 49 -45 -15 -18
-16 -18 38 4 11 4 14 3 9 -5 -9 -14 -9 -14 33 -2 19 5 30 6 25 1 -15 -14 -257
-137 -281 -144 -27 -6 -29 10 -12 94 10 48 16 80 18 101 1 7 25 15 51 17 8 0
39 -9 70 -21z m-1088 -448 c50 -154 104 -244 166 -279 29 -17 6 -22 -42 -10
-34 8 -51 19 -65 43 -32 53 -70 173 -86 269 -16 101 -18 145 -4 82 5 -22 19
-69 31 -105z m873 8 c-3 -83 -2 -115 5 -98 10 27 7 -41 -8 -180 -8 -73 -16
-87 -12 -23 2 34 3 33 -99 49 -24 3 -70 21 -102 40 -31 19 -66 34 -77 34 -25
0 -47 46 -26 54 21 8 17 25 -5 19 -14 -3 -20 2 -24 24 -4 15 -9 37 -13 49 -9
33 60 47 193 41 59 -3 117 -7 128 -9 16 -2 21 3 23 27 4 49 13 95 17 95 3 0 3
-55 0 -122z m2592 -20 c-27 -133 -68 -252 -142 -418 -52 -117 -93 -190 -105
-190 -11 0 0 38 21 75 63 108 212 509 234 629 4 20 9 35 12 32 3 -2 -7 -60
-20 -128z m-3007 2 c-20 -16 -22 -20 -7 -20 9 0 17 -8 18 -17 1 -39 7 -80 13
-101 6 -17 2 -24 -16 -31 -13 -5 -26 -7 -30 -4 -4 2 -15 -11 -24 -28 l-16 -32
-12 24 c-9 17 -9 26 -2 31 7 5 4 8 -6 8 -17 0 -48 46 -48 72 0 18 71 88 90 88
8 0 24 7 34 15 11 8 22 15 25 15 3 0 -5 -9 -19 -20z m-1066 -85 c-19 -65 -38
-308 -31 -410 4 -44 13 -114 21 -155 22 -115 26 -162 13 -157 -20 6 -56 124
-66 215 -16 144 -21 327 -11 384 12 62 73 188 86 175 2 -1 -3 -25 -12 -52z
m771 -4 c8 -27 31 -74 50 -106 19 -32 35 -63 35 -69 0 -7 14 -34 31 -61 26
-42 32 -61 34 -120 1 -38 6 -78 10 -87 4 -11 3 -18 -3 -18 -6 0 -13 13 -17 30
-8 36 -25 50 -25 21 0 -12 -6 -21 -12 -21 -7 0 -23 -22 -35 -48 -26 -53 -26
-54 3 113 l17 101 -50 119 c-43 102 -71 195 -58 195 2 0 11 -22 20 -49z m785
37 c0 -7 21 -22 46 -33 53 -23 70 -40 76 -77 8 -41 -21 -65 -86 -73 -30 -4
-59 -4 -65 0 -12 7 -15 113 -5 164 6 29 34 45 34 19z m2798 -70 c9 -9 7 -17
-9 -34 -20 -21 -21 -34 -21 -206 -1 -124 5 -219 16 -296 22 -138 16 -170 -8
-47 -45 230 -48 249 -44 410 2 88 7 166 11 173 10 15 39 16 55 0z m-5044 -68
c-21 -16 -44 -30 -50 -30 -6 0 -19 -8 -28 -19 -15 -16 -17 -44 -16 -217 0
-282 36 -503 114 -708 27 -72 26 -99 -3 -57 -44 66 -93 241 -112 406 -18 144
-19 609 -2 626 9 9 11 7 6 -10 -5 -19 -3 -20 18 -12 13 5 40 18 59 29 52 30
59 26 14 -8z m1319 -107 c18 -108 15 -138 -14 -120 -14 9 -18 19 -14 36 l6 25
-19 -23 c-17 -22 -22 -23 -53 -12 -19 6 -45 20 -59 31 l-25 20 25 0 c23 1 24
2 7 14 -14 11 -16 19 -7 40 5 14 14 26 20 26 5 0 10 11 10 25 0 21 3 24 28 19
16 -3 35 1 47 10 11 8 23 12 26 8 4 -4 14 -48 22 -99z m-4291 -143 c113 -229
209 -442 206 -458 -4 -19 -31 18 -92 132 -20 38 -49 85 -64 105 -30 38 -82
165 -101 243 -14 59 -14 61 2 56 6 -2 29 -37 49 -78z m7703 -91 c-15 -59 -52
-159 -87 -234 -59 -129 -160 -295 -179 -295 -11 0 -1 22 39 85 55 87 171 336
207 443 20 62 39 111 42 109 2 -3 -8 -51 -22 -108z m-2944 -103 c5 3 6 -2 2
-12 -5 -14 -1 -15 28 -10 l34 5 -32 -11 c-28 -9 -54 -48 -32 -48 5 0 9 5 9 11
0 6 6 9 14 6 8 -3 17 1 20 10 5 11 15 14 41 9 26 -5 35 -4 33 6 -2 8 10 14 32
16 l35 3 -51 -52 c-43 -43 -58 -52 -89 -52 -20 -1 -39 3 -43 9 -15 22 -79 53
-105 50 -18 -2 -27 1 -27 10 0 17 16 18 25 3 5 -6 12 -4 22 8 8 10 12 13 9 6
-4 -6 -2 -14 4 -18 5 -3 10 -1 10 6 0 6 8 9 20 6 18 -5 24 2 18 20 -3 8 -14 7
-75 -3 -18 -3 -33 -1 -33 4 0 15 63 29 94 21 16 -5 33 -6 37 -3z m3179 -168
c0 -7 -5 -33 -11 -58 -6 -25 -12 -83 -14 -130 -3 -81 -39 -267 -72 -375 -32
-103 -107 -281 -134 -321 -54 -79 -242 -231 -384 -311 -77 -43 -61 -19 22 33
76 47 233 161 233 169 0 2 -8 2 -17 0 -10 -3 -6 0 9 7 54 27 93 76 149 188 21
44 84 221 93 265 1 6 10 37 20 70 70 232 85 334 32 215 -82 -187 -144 -291
-215 -360 -20 -19 -50 -53 -68 -75 -18 -22 -32 -35 -32 -28 -1 6 18 35 42 65
71 87 131 178 182 273 50 93 130 294 141 352 6 31 24 47 24 21z m-2195 -461
c9 -43 19 -92 22 -110 3 -17 14 -50 24 -71 10 -22 19 -45 19 -50 0 -6 9 -22
20 -36 11 -14 20 -31 20 -38 0 -17 54 -98 93 -139 17 -18 28 -35 25 -39 -8 -7
22 -38 46 -47 9 -4 24 -20 34 -37 9 -16 21 -30 25 -30 11 0 72 -54 112 -99 16
-19 43 -47 59 -63 73 -72 -77 16 -178 105 -103 90 -178 174 -218 242 -80 136
-154 399 -141 504 7 54 7 55 14 21 4 -19 15 -70 24 -113z m2113 -556 c64 -51
112 -110 112 -138 0 -13 -4 -23 -8 -23 -4 0 -32 25 -62 55 -30 30 -58 55 -63
55 -5 0 -20 9 -34 20 -39 30 -72 26 -86 -10 -6 -16 -15 -30 -19 -30 -11 0 -10
2 8 46 23 55 32 64 69 64 23 0 48 -12 83 -39z m-2381 -436 c24 -23 43 -46 43
-53 0 -7 6 -12 13 -12 21 -1 93 -92 112 -142 10 -27 23 -48 30 -48 7 0 18 -13
25 -30 7 -16 18 -30 26 -30 7 0 18 -9 24 -21 7 -11 14 -19 16 -16 2 2 -23 60
-56 129 -61 128 -72 159 -43 123 l16 -20 -8 20 c-9 26 -17 64 -9 48 3 -7 16
-13 28 -13 19 0 32 -17 69 -86 26 -48 63 -126 83 -173 20 -47 41 -92 47 -98
10 -14 -9 -47 -23 -38 -4 3 -10 -4 -13 -14 -4 -17 -53 -35 -69 -25 -4 3 -49
64 -100 137 -51 73 -118 166 -149 207 -71 95 -174 249 -183 274 -4 11 12 -2
36 -30 23 -27 62 -67 85 -89z m-2183 -57 c-4 -7 -20 -32 -36 -55 -15 -23 -28
-46 -28 -51 0 -5 -18 -37 -41 -72 -47 -73 -116 -247 -149 -375 -13 -49 -27
-94 -33 -100 -6 -6 -7 -3 -4 10 3 11 8 52 12 90 4 39 16 113 26 165 17 78 28
107 66 165 61 93 225 287 187 223z m3505 -133 l-19 -69 25 -50 c13 -28 67
-134 120 -234 53 -101 95 -185 93 -187 -7 -7 -179 274 -223 366 l-46 96 24 59
c13 33 27 68 31 78 3 10 8 17 11 15 2 -2 -5 -35 -16 -74z m540 -59 c84 -57
102 -74 147 -143 267 -408 339 -540 462 -838 80 -195 97 -249 49 -155 -18 36
-53 101 -78 145 -25 44 -54 102 -65 128 l-19 47 -6 -88 -5 -87 -2 104 -2 104
-81 160 c-129 255 -334 543 -445 626 -57 41 -75 61 -58 61 3 0 49 -29 103 -64z
m-215 -386 c35 -69 71 -138 79 -155 8 -16 29 -65 47 -107 17 -42 58 -114 91
-159 32 -45 59 -87 59 -93 0 -6 16 -38 36 -71 31 -52 36 -66 32 -107 -4 -35
-2 -48 8 -48 7 0 11 -6 8 -14 -3 -7 3 -21 12 -30 9 -10 18 -36 20 -58 1 -22 9
-47 18 -56 8 -10 18 -45 22 -79 5 -51 4 -63 -8 -63 -20 0 -118 240 -118 288 0
13 -14 38 -31 56 -17 18 -43 57 -59 87 -15 30 -41 79 -58 109 -17 30 -49 109
-71 175 -46 139 -96 278 -140 388 -55 137 -39 118 53 -63z m-2750 -55 c39 -17
177 -143 229 -210 17 -22 -13 4 -68 58 -98 95 -152 137 -179 137 -21 0 -128
-49 -161 -75 -23 -17 -38 -44 -59 -104 -33 -96 -44 -103 -16 -11 11 35 17 66
15 68 -7 8 -65 -40 -169 -140 l-98 -93 -24 -85 c-18 -64 -32 -92 -55 -113 -17
-16 -33 -26 -36 -24 -2 3 5 37 17 75 43 146 190 314 382 438 51 33 147 82 184
94 1 0 18 -7 38 -15z m-3270 -307 c-4 -7 -35 -47 -69 -88 -33 -41 -74 -97 -90
-123 -17 -27 -61 -96 -99 -155 -70 -108 -195 -357 -235 -467 -26 -75 -107
-393 -126 -500 -8 -44 -19 -96 -25 -115 -12 -35 -14 -509 -4 -560 5 -24 5 -24
-10 -6 -9 11 -16 37 -16 57 0 21 -4 48 -9 61 -13 35 -25 367 -12 348 7 -11 10
29 10 132 -1 111 3 154 15 180 8 18 20 85 26 148 7 63 18 124 24 135 13 20 46
125 66 203 6 23 15 42 20 42 6 0 10 7 10 15 0 21 143 297 191 368 23 34 64 85
90 114 27 28 49 56 49 61 0 17 141 151 163 155 12 2 26 5 30 6 5 0 5 -5 1 -11z
m2917 -226 c-31 -95 -51 -140 -76 -168 -136 -157 -212 -241 -292 -323 -51 -52
-90 -97 -88 -102 3 -4 -5 -16 -17 -26 -45 -36 -152 -186 -211 -296 -74 -136
-94 -198 -102 -303 -3 -54 -12 -121 -20 -149 -8 -27 -16 -74 -19 -104 -6 -62
-11 -69 -34 -55 -13 8 -20 7 -28 -4 -15 -21 -50 0 -56 33 -6 31 5 40 31 25 27
-14 51 -2 51 26 0 13 -3 24 -7 24 -5 0 -8 23 -8 51 0 28 -3 53 -7 55 -3 2 -5
19 -3 37 l4 32 -20 -37 c-11 -21 -22 -38 -25 -38 -3 0 -2 5 2 11 4 7 -2 9 -17
7 -20 -2 -25 2 -27 25 -2 16 -1 36 3 44 5 14 7 14 19 -2 7 -10 11 -27 8 -38
-3 -14 -1 -18 7 -13 6 4 9 11 6 16 -3 5 -1 11 4 14 13 9 39 101 47 169 4 31
13 62 20 68 8 6 11 15 8 20 -3 5 -1 9 5 9 11 0 33 69 26 80 -2 4 7 18 20 30
14 13 25 29 25 35 0 7 13 30 28 51 45 62 47 74 12 67 -26 -5 -30 -3 -30 17 0
16 4 20 15 16 8 -3 15 -1 15 4 0 6 9 5 20 -2 11 -7 20 -19 20 -27 0 -11 3 -12
11 -4 16 16 2 48 -27 62 -24 11 -31 48 -8 45 5 -1 26 -5 47 -8 28 -5 37 -4 32
4 -4 6 1 20 10 30 17 19 17 20 0 26 -9 4 -20 2 -24 -5 -4 -6 -24 -14 -44 -18
-32 -5 -37 -3 -37 14 0 32 21 43 81 43 49 0 57 -3 62 -21 7 -24 34 -23 51 3 8
13 8 23 -1 36 -9 16 -7 21 17 35 35 21 46 22 30 2 -10 -12 -10 -15 0 -15 9 0
7 -7 -6 -21 -19 -22 -19 -22 1 -11 11 5 38 27 60 47 l40 37 -37 -26 c-50 -35
-61 -32 -18 5 19 17 27 28 18 25 -10 -3 -18 -1 -18 4 0 6 2 10 4 10 2 0 12 3
22 7 12 4 15 3 10 -5 -32 -52 116 62 211 162 69 73 102 118 139 189 26 50 53
97 59 104 7 6 18 32 25 57 7 26 15 44 18 42 3 -3 -14 -63 -37 -134z m-1066
-127 c-4 -166 -6 -177 -28 -208 -14 -17 -28 -42 -31 -54 -4 -12 -22 -38 -41
-58 -18 -21 -31 -43 -29 -50 3 -7 0 -16 -5 -20 -6 -3 -9 -11 -5 -16 3 -5 0
-17 -7 -25 -6 -8 -24 -58 -40 -112 l-27 -97 -1 65 c0 40 7 84 18 115 11 28 35
95 55 150 20 55 50 128 67 163 18 38 36 98 45 155 8 50 17 109 21 130 3 20 7
37 9 37 2 0 2 -79 -1 -175z m-689 -30 c-125 -190 -287 -654 -286 -815 1 -25
-3 -83 -9 -130 -22 -193 -10 -430 35 -656 29 -147 30 -213 2 -129 -9 28 -24
79 -33 115 -9 36 -18 72 -22 80 -3 8 -7 33 -9 55 -3 21 -8 41 -12 45 -4 3 -8
14 -8 25 -1 11 -9 86 -19 166 -17 140 -17 155 -1 315 9 93 24 189 32 214 9 25
19 68 24 97 5 28 18 70 29 94 12 24 21 48 21 55 0 7 5 14 11 16 5 2 13 23 16
47 3 23 12 45 19 48 8 3 14 11 14 19 0 34 187 364 206 364 4 0 -1 -11 -10 -25z
m5607 -1847 l42 -1 -42 -4 c-33 -3 -43 -8 -46 -26 -2 -12 -4 354 -3 813 l1
835 2 -808 3 -807 43 -2z m-2955 1292 c37 -23 64 -63 91 -136 23 -61 38 -137
22 -114 -11 16 -13 15 -28 -20 -8 -19 -8 -32 2 -50 7 -14 15 -60 18 -103 5
-74 4 -79 -16 -86 -13 -5 -27 -5 -34 1 -8 6 -13 2 -15 -14 -4 -21 -5 -21 -24
12 -24 43 -115 140 -131 140 -7 0 -31 -24 -53 -54 -49 -65 -90 -87 -90 -50 0
13 -3 14 -14 5 -9 -8 -31 -10 -63 -6 -46 7 -49 5 -73 -27 -27 -35 -45 -64 -56
-88 -4 -8 -22 -33 -39 -55 -18 -22 -46 -69 -64 -105 -18 -36 -47 -94 -66 -130
-28 -55 -95 -215 -119 -284 -4 -10 -9 -16 -12 -13 -10 9 16 109 38 147 11 19
37 82 58 140 83 231 163 400 234 493 17 23 52 76 78 117 76 122 202 255 269
285 44 19 48 18 87 -5z m-1898 -310 c5 0 11 6 13 13 3 6 6 3 6 -8 0 -11 -10
-40 -24 -64 -14 -23 -25 -48 -25 -54 0 -6 -9 -21 -21 -33 -20 -21 -20 -24 -5
-75 9 -29 16 -54 16 -56 0 -2 -15 -3 -34 -3 -28 0 -36 5 -50 33 -19 41 -6 110
19 100 11 -4 15 3 15 26 0 19 5 31 13 31 15 0 30 27 48 92 10 33 14 38 17 21
2 -13 7 -23 12 -23z m-220 -130 c-4 -74 -19 -202 -34 -285 -15 -82 -31 -195
-36 -250 -6 -55 -18 -131 -27 -170 -16 -63 -22 -72 -63 -102 -25 -18 -66 -48
-91 -67 l-47 -34 64 84 c35 47 64 93 64 102 0 15 30 148 60 262 5 19 14 73 21
120 6 47 16 96 21 110 5 13 13 54 18 90 5 36 16 97 24 135 8 39 17 87 21 109
3 21 7 36 9 35 1 -2 0 -65 -4 -139z"/>
<path d="M3771 8978 c-5 -13 -29 -44 -53 -69 -24 -25 -56 -73 -72 -105 -16
-32 -35 -66 -42 -74 -14 -18 -85 -147 -153 -280 -57 -113 -123 -300 -124 -352
0 -20 -4 -36 -10 -35 -17 3 -70 -240 -87 -401 -6 -57 -14 -110 -17 -118 -3 -8
-1 -14 4 -14 16 0 33 73 33 138 0 66 7 95 21 86 14 -8 10 -70 -10 -163 -24
-105 -32 -169 -21 -176 4 -2 10 24 13 60 7 68 33 174 48 190 5 5 9 26 9 47 0
22 7 52 15 68 16 31 9 39 -14 18 -12 -11 -13 -10 -7 6 3 10 11 38 17 63 9 32
16 43 28 41 11 -3 16 -13 15 -33 0 -17 1 -22 3 -12 5 19 33 24 33 5 0 -7 -7
-26 -15 -42 -9 -18 -12 -33 -7 -38 6 -6 12 4 16 24 3 18 17 54 31 80 32 60 32
75 0 23 -24 -38 -25 -39 -25 -13 0 43 16 74 51 99 18 13 29 16 24 8 -6 -11 -5
-12 5 -2 11 11 11 17 0 38 -10 19 -11 31 -2 49 9 21 9 24 -3 19 -21 -7 -19 10
5 39 10 14 16 29 12 32 -4 4 -2 6 3 5 10 -3 58 25 81 46 6 6 9 27 6 48 l-4 39
-27 -53 c-27 -53 -54 -78 -44 -40 3 13 1 21 -6 21 -7 0 -9 5 -6 10 4 6 10 8
15 5 4 -3 20 15 35 40 l26 46 -32 40 c-17 22 -27 39 -23 38 20 -3 32 2 37 15
4 10 1 13 -9 9 -11 -4 -14 4 -14 31 0 43 18 82 53 115 21 18 24 29 20 57 -4
26 1 44 27 84 29 45 56 70 76 70 3 0 -5 -15 -19 -34 -15 -18 -23 -37 -19 -41
4 -3 1 -5 -7 -3 -8 2 -20 -11 -28 -30 -9 -22 -10 -31 -2 -27 8 6 8 2 0 -13 -7
-14 -8 -23 -1 -27 6 -4 4 -19 -5 -42 -32 -77 -9 -67 30 13 15 31 36 59 46 61
10 3 16 10 13 15 -4 6 -2 13 3 17 5 3 22 23 37 44 16 20 32 37 36 37 5 0 27
18 49 40 22 22 47 40 56 40 9 0 13 5 10 10 -9 14 13 40 32 40 8 0 32 14 53 30
50 40 58 38 26 -5 -32 -42 -24 -45 18 -7 32 28 22 10 -23 -43 -25 -29 -25 -29
9 3 20 17 39 32 43 32 8 0 -10 -35 -32 -62 -8 -10 -11 -18 -6 -18 4 0 13 7 20
17 20 27 38 6 19 -23 -21 -32 -26 -94 -7 -94 13 0 18 18 14 54 -1 11 11 32 25
47 22 23 25 31 15 43 -10 12 -9 20 6 42 10 16 12 25 6 21 -19 -12 -16 13 4 35
15 17 13 18 -66 18 -79 0 -83 -1 -134 -39 -73 -54 -157 -145 -212 -230 -26
-40 -49 -70 -53 -67 -5 5 44 104 57 116 24 21 71 92 71 108 0 18 16 31 46 37
6 2 32 19 58 39 l48 36 -81 0 c-75 0 -82 -2 -90 -22z m-280 -688 c-16 -18 -34
-29 -40 -26 -6 4 -11 0 -11 -8 0 -8 -8 -20 -19 -25 -10 -6 -22 -18 -25 -28 -6
-14 -4 -15 5 -6 6 6 18 9 25 6 8 -3 18 5 24 21 12 32 30 34 30 4 0 -27 -27
-58 -51 -58 -22 0 -37 -46 -20 -63 8 -8 11 -7 11 5 0 9 7 18 15 22 12 4 11 -3
-5 -34 -11 -22 -25 -40 -30 -40 -6 0 -10 -5 -10 -11 0 -5 5 -7 10 -4 24 15 7
-35 -25 -69 -60 -65 -74 -16 -29 101 14 37 27 79 27 93 1 14 11 39 23 55 11
17 26 44 32 60 7 17 28 45 47 64 19 19 36 39 37 45 1 6 3 -8 5 -30 3 -35 -1
-47 -26 -74z"/>
<path d="M7084 7714 c-9 -53 -13 -58 -34 -39 -15 13 -27 15 -69 7 -28 -5 -63
-7 -77 -4 -26 5 -26 4 -11 -19 22 -34 43 -269 24 -269 -4 0 -2 -10 5 -22 11
-21 13 -16 19 47 3 39 2 83 -2 99 -11 36 -7 41 21 26 37 -20 33 -4 -5 19 -28
16 -35 26 -32 45 1 14 5 28 8 30 3 3 30 -3 60 -14 29 -11 55 -20 56 -20 2 0 3
-5 3 -11 0 -6 -7 -9 -15 -5 -8 3 -15 1 -15 -4 0 -6 -9 -10 -21 -10 -22 0 -22
-21 1 -28 8 -3 10 0 5 8 -6 9 -4 11 5 5 9 -5 4 -14 -16 -30 l-29 -23 41 7 42
8 -10 -31 c-5 -17 -14 -41 -20 -53 -6 -12 -8 -28 -5 -36 3 -8 2 -18 -2 -23 -5
-5 -5 -20 0 -34 4 -16 7 -19 8 -7 1 11 10 17 29 18 23 2 24 2 5 6 -28 5 -29
21 -2 84 19 44 39 64 39 40 0 -5 7 -11 15 -15 12 -4 13 -2 3 14 -19 30 -3 35
32 10 17 -12 33 -20 36 -18 2 3 -6 33 -18 68 l-21 64 -22 -28 -21 -27 -3 47
c-1 25 2 44 6 41 8 -5 8 102 -1 110 -2 3 -8 -12 -12 -33z"/>
<path d="M3287 7473 c-2 -5 -5 -30 -6 -58 -3 -60 -8 -67 -28 -37 -25 36 -33
26 -33 -40 1 -85 14 -139 41 -161 l23 -18 -27 6 c-18 5 -27 3 -27 -5 0 -18 20
-50 31 -50 6 0 7 6 3 13 -4 6 1 5 10 -4 20 -18 36 -78 35 -129 l-1 -35 -17 37
c-24 52 -37 62 -17 14 35 -85 58 -88 49 -6 -7 73 11 83 22 13 8 -58 30 -113
44 -113 6 0 11 5 11 11 0 5 -4 8 -9 4 -11 -6 -45 138 -38 157 3 8 6 6 6 -4 1
-10 6 -18 11 -18 6 0 10 -8 10 -19 0 -10 7 -32 16 -47 l15 -29 -5 40 c-9 76
-38 124 -63 104 -10 -9 -13 -7 -14 7 -1 15 -3 13 -10 -6 -7 -22 -8 -21 -6 10
1 27 -2 34 -14 33 -13 -3 -14 5 -5 62 5 35 13 62 19 58 5 -3 3 5 -3 18 -8 13
-13 61 -13 111 -1 87 -2 95 -10 81z"/>
<path d="M7085 7394 c0 -52 1 -54 34 -65 27 -9 35 -9 42 2 6 9 9 10 9 2 0 -6
-7 -19 -16 -28 -9 -8 -14 -22 -11 -29 3 -7 -1 -26 -9 -41 -11 -21 -12 -31 -2
-42 8 -11 13 -11 19 -2 4 7 5 18 2 25 -2 6 0 15 6 19 6 3 11 1 11 -4 0 -6 7
-11 15 -11 26 0 37 -46 20 -87 -16 -37 -13 -53 10 -53 17 0 28 -17 20 -30 -5
-8 -11 -7 -21 1 -8 6 -14 8 -14 3 0 -15 14 -30 34 -37 12 -5 17 -14 13 -27 -3
-11 -1 -35 3 -54 5 -24 4 -35 -3 -33 -16 3 -35 -55 -19 -60 6 -3 12 -12 12
-20 0 -13 -3 -13 -17 -3 -27 19 68 -68 100 -91 15 -11 27 -17 27 -12 0 4 -9
14 -20 21 -17 10 -20 23 -20 80 l1 67 24 -30 c32 -39 32 -29 0 15 -37 50 -19
64 50 36 29 -12 61 -28 70 -36 13 -11 15 -11 10 1 -3 8 -32 31 -65 52 -33 21
-60 42 -60 48 0 16 41 10 77 -12 46 -29 52 -17 14 26 -17 20 -31 33 -31 29 0
-3 -7 -1 -15 6 -8 6 -19 9 -25 5 -16 -10 -24 23 -10 40 17 21 33 14 40 -16 5
-21 7 -22 13 -6 5 13 -4 28 -30 55 -20 20 -28 27 -18 15 21 -27 15 -29 -26 -8
-24 13 -28 19 -19 35 15 28 12 36 -5 14 -15 -18 -16 -18 -14 6 2 42 -1 46 -15
21 l-13 -24 -19 39 c-11 23 -25 38 -34 37 -8 -2 -21 6 -27 16 -10 16 -8 27 11
64 25 47 22 68 -15 88 -16 8 -20 7 -17 -3 2 -7 -8 -24 -21 -37 -26 -26 -45
-17 -39 20 2 17 9 24 25 23 12 0 20 4 16 8 -3 5 4 12 16 15 33 8 16 20 -31 20
l-43 1 0 -54z"/>
<path d="M3571 7141 c24 -27 49 -49 56 -50 6 -1 15 -11 18 -23 8 -26 67 -180
73 -188 2 -2 7 2 11 9 9 14 31 -36 31 -73 1 -19 2 -18 16 6 8 15 23 32 34 38
11 6 17 16 14 25 -4 8 1 26 10 40 9 13 16 34 16 45 0 11 7 36 14 55 8 19 13
35 11 35 -8 0 -52 -94 -65 -137 -12 -38 -30 -59 -30 -33 0 5 -13 24 -28 42
-16 18 -41 63 -56 99 -25 59 -36 73 -92 113 -35 25 -67 46 -70 46 -4 0 13 -22
37 -49z"/>
</g>
</svg>
